<svg id="Layer_1" data-name="Layer 1" xmlns="http://www.w3.org/2000/svg" xmlns:xlink="http://www.w3.org/1999/xlink" viewBox="0 0 32 32"><defs><style>.cls-1,.cls-2,.cls-3{fill:none;}.cls-1{stroke-width:3px;stroke:url(#linear-gradient);}.cls-2{stroke:#5eead4;}.cls-2,.cls-3{stroke-width:2px;}.cls-3{stroke:#34d399;}.cls-4{fill:#22c55e;}.cls-5{fill:#fff;}.cls-6{fill:url(#linear-gradient-2);}</style><linearGradient id="linear-gradient" x1="-362.43" y1="522.76" x2="-362.06" y2="522.39" gradientTransform="matrix(76, 0, 0, -76, 27547, 39731)" gradientUnits="userSpaceOnUse"><stop offset="0" stop-color="#1e3a8a"/><stop offset="1" stop-color="#22c55e"/></linearGradient><linearGradient id="linear-gradient-2" x1="-351.46" y1="521.35" x2="-351.12" y2="521.01" gradientTransform="matrix(24.04, 24.04, 8.49, -8.49, 4049.56, 12894.99)" gradientUnits="userSpaceOnUse"><stop offset="0" stop-color="#2563eb"/><stop offset="1" stop-color="#1e40af"/></linearGradient></defs><title>logo-icon</title><circle class="cls-1" cx="16.19" cy="15.42" r="13"/><circle class="cls-2" cx="16.01" cy="15.59" r="8.74"/><circle class="cls-3" cx="16.19" cy="15.42" r="4.85"/><path class="cls-4" d="M16.19,7.89A3.15,3.15,0,0,0,12.77,11c0,2.74,3.42,5.82,3.42,5.82s3.42-3.08,3.42-5.82A3.16,3.16,0,0,0,16.19,7.89Z"/><circle class="cls-5" cx="16.19" cy="10.97" r="1.03"/><path class="cls-6" d="M25.16,23l5.32,5.32a2,2,0,0,1,0,2.9h0a2.05,2.05,0,0,1-2.9,0l-5.32-5.32a2.05,2.05,0,0,1,0-2.9h0A2.05,2.05,0,0,1,25.16,23Z"/></svg>