<svg id="Layer_1" data-name="Layer 1" xmlns="http://www.w3.org/2000/svg" xmlns:xlink="http://www.w3.org/1999/xlink" viewBox="0 0 155.79 43.91"><defs><style>.cls-1,.cls-2,.cls-3{fill:none;}.cls-1{stroke-width:3px;stroke:url(#linear-gradient);}.cls-2{stroke:#5eead4;}.cls-2,.cls-3{stroke-width:2px;}.cls-3{stroke:#34d399;}.cls-4{fill:#22c55e;}.cls-5{fill:#fff;}.cls-6{fill:url(#linear-gradient-2);}</style><linearGradient id="linear-gradient" x1="-302.17" y1="522.67" x2="-301.79" y2="522.3" gradientTransform="matrix(76, 0, 0, -76, 22972, 39731)" gradientUnits="userSpaceOnUse"><stop offset="0" stop-color="#1e3a8a"/><stop offset="1" stop-color="#22c55e"/></linearGradient><linearGradient id="linear-gradient-2" x1="-291.44" y1="517.7" x2="-291.05" y2="517.31" gradientTransform="matrix(24.04, 24.04, 8.49, -8.49, 2644.03, 11428.45)" gradientUnits="userSpaceOnUse"><stop offset="0" stop-color="#2563eb"/><stop offset="1" stop-color="#1e40af"/></linearGradient></defs><title>logo-dark</title><circle class="cls-1" cx="21.72" cy="22.02" r="14.69"/><circle class="cls-2" cx="21.52" cy="22.21" r="9.88"/><circle class="cls-3" cx="21.72" cy="22.02" r="5.48"/><path class="cls-4" d="M21.72,13.51A3.58,3.58,0,0,0,17.85,17c0,3.09,3.87,6.57,3.87,6.57s3.87-3.48,3.87-6.57A3.58,3.58,0,0,0,21.72,13.51Z"/><circle class="cls-5" cx="21.72" cy="16.99" r="1.16"/><path class="cls-6" d="M31.86,30.61l6,6a2.33,2.33,0,0,1,0,3.28h0a2.33,2.33,0,0,1-3.28,0l-6-6a2.33,2.33,0,0,1,0-3.28h0A2.33,2.33,0,0,1,31.86,30.61Z"/><path class="cls-5" d="M53.76,16a1.24,1.24,0,0,1-.23.73,1.75,1.75,0,0,1-.53.49,7.21,7.21,0,0,0-1.27-.68,4.56,4.56,0,0,0-1.76-.3,4.18,4.18,0,0,0-2.15.53,3.66,3.66,0,0,0-1.44,1.59A5.9,5.9,0,0,0,45.87,21,4.83,4.83,0,0,0,47,24.46a4.09,4.09,0,0,0,3.07,1.19,4.88,4.88,0,0,0,1.76-.29,6,6,0,0,0,1.29-.65,1.6,1.6,0,0,1,.49.51,1.42,1.42,0,0,1,.21.75,1.31,1.31,0,0,1-.19.68,1.61,1.61,0,0,1-.64.54,5.11,5.11,0,0,1-1.25.48,7.57,7.57,0,0,1-2,.22,7.68,7.68,0,0,1-3.41-.75,5.64,5.64,0,0,1-2.43-2.29A7.7,7.7,0,0,1,43,21a7.61,7.61,0,0,1,.89-3.83,6.09,6.09,0,0,1,2.4-2.35A6.92,6.92,0,0,1,49.62,14a7.52,7.52,0,0,1,2.19.28,3.88,3.88,0,0,1,1.44.74A1.35,1.35,0,0,1,53.76,16Z"/><path class="cls-5" d="M58.92,23.31l-2.68-.13V13.4l.49-.11a4.08,4.08,0,0,1,.71-.06,1.86,1.86,0,0,1,1.13.27,1.14,1.14,0,0,1,.35,1Zm-2.68-1.5,2.68.13v5.58a3.35,3.35,0,0,1-.5.12,4.07,4.07,0,0,1-.72.05,1.84,1.84,0,0,1-1.1-.27,1.14,1.14,0,0,1-.36-1Z"/><path class="cls-5" d="M61.73,14.19a1.42,1.42,0,0,1,.45-1.07,1.55,1.55,0,0,1,1.12-.44,1.48,1.48,0,0,1,1.12.44,1.44,1.44,0,0,1,.43,1.07,1.5,1.5,0,0,1-1.55,1.5,1.52,1.52,0,0,1-1.12-.45A1.44,1.44,0,0,1,61.73,14.19Zm2.92,9H62V17.34a2.89,2.89,0,0,1,.51-.11,4.23,4.23,0,0,1,.73-.06,1.81,1.81,0,0,1,1.11.27,1.19,1.19,0,0,1,.35,1ZM62,21.81h2.7v5.71a3.35,3.35,0,0,1-.5.12,4.07,4.07,0,0,1-.72.05,1.89,1.89,0,0,1-1.11-.27,1.11,1.11,0,0,1-.37-1Z"/><path class="cls-5" d="M68.73,23.77l-.11-1.87L74.46,21a2.38,2.38,0,0,0-.64-1.44A2.12,2.12,0,0,0,72.17,19a2.47,2.47,0,0,0-1.85.77A3.15,3.15,0,0,0,69.55,22l.07,1.14a2.88,2.88,0,0,0,1.08,2,3.62,3.62,0,0,0,2.23.66,5.18,5.18,0,0,0,1.7-.27,5.52,5.52,0,0,0,1.24-.6,1.44,1.44,0,0,1,.49.49,1.12,1.12,0,0,1,.19.64,1.22,1.22,0,0,1-.5,1,3.68,3.68,0,0,1-1.35.62,8.15,8.15,0,0,1-1.94.22,6.9,6.9,0,0,1-3-.62,4.62,4.62,0,0,1-2-1.87A5.94,5.94,0,0,1,67,22.29,6,6,0,0,1,67.44,20a4.86,4.86,0,0,1,1.12-1.67,4.78,4.78,0,0,1,1.65-1,5.85,5.85,0,0,1,2-.34,5.26,5.26,0,0,1,2.51.58A4.33,4.33,0,0,1,77,21.48a1.19,1.19,0,0,1-.31.91,1.54,1.54,0,0,1-.88.36Z"/><path class="cls-5" d="M88.68,20.83v2.11H86v-2a1.7,1.7,0,0,0-.54-1.4A2.22,2.22,0,0,0,84,19.09a4.12,4.12,0,0,0-1.21.16,6.06,6.06,0,0,0-1,.38v3.31H79.16V19.46a1.5,1.5,0,0,1,.22-.86A2,2,0,0,1,80,18a5.92,5.92,0,0,1,1.69-.73A8.26,8.26,0,0,1,84,17a5.39,5.39,0,0,1,3.43,1A3.49,3.49,0,0,1,88.68,20.83Zm-9.52,1.05h2.68v5.64a3.35,3.35,0,0,1-.5.12,4.07,4.07,0,0,1-.72.05,1.84,1.84,0,0,1-1.1-.27,1.14,1.14,0,0,1-.36-1Zm6.84,0h2.68v5.64a2.65,2.65,0,0,1-.49.12,4,4,0,0,1-.71.05,1.89,1.89,0,0,1-1.12-.27,1.14,1.14,0,0,1-.36-1Z"/><path class="cls-5" d="M94.19,22.4H91.51V14.56a2.58,2.58,0,0,1,.52-.13,3.2,3.2,0,0,1,.7-.07,1.87,1.87,0,0,1,1.12.27,1.18,1.18,0,0,1,.34,1Zm-2.68-.59h2.68v2.57a1.2,1.2,0,0,0,.43,1,2.08,2.08,0,0,0,1.21.3,3.47,3.47,0,0,0,.75-.09,3.33,3.33,0,0,0,.69-.21,2.25,2.25,0,0,1,.28.41,1.2,1.2,0,0,1,.13.59,1.22,1.22,0,0,1-.6,1,3.28,3.28,0,0,1-1.86.42,4.26,4.26,0,0,1-2.71-.78,3,3,0,0,1-1-2.51Zm1.64-2.22V17.48h4.27a2.05,2.05,0,0,1,.18.43,1.7,1.7,0,0,1,.1.59,1.17,1.17,0,0,1-.26.82.89.89,0,0,1-.67.27Z"/><path class="cls-5" d="M104,25.65a2.8,2.8,0,0,0,1.87-.52,1.58,1.58,0,0,0,.61-1.27,1.39,1.39,0,0,0-.47-1.1,3.67,3.67,0,0,0-1.42-.71l-1.42-.43a12.28,12.28,0,0,1-1.91-.83A3.44,3.44,0,0,1,100,19.6a3.39,3.39,0,0,1-.45-1.8A3.36,3.36,0,0,1,100.87,15a5.76,5.76,0,0,1,3.61-1,8.46,8.46,0,0,1,2.17.25,4.19,4.19,0,0,1,1.5.69,1.29,1.29,0,0,1,.35,1.75,1.77,1.77,0,0,1-.51.51,5,5,0,0,0-1.38-.64,6.35,6.35,0,0,0-1.89-.27,3.17,3.17,0,0,0-1.75.41,1.3,1.3,0,0,0-.61,1.11,1.14,1.14,0,0,0,.43.92,3.85,3.85,0,0,0,1.3.61l1.26.37a7.5,7.5,0,0,1,2.92,1.53,3.43,3.43,0,0,1,1,2.65,3.56,3.56,0,0,1-1.36,2.9,6,6,0,0,1-3.89,1.11,9.23,9.23,0,0,1-2.35-.28,4.23,4.23,0,0,1-1.62-.79,1.45,1.45,0,0,1-.6-1.13,1.23,1.23,0,0,1,.3-.83,2.26,2.26,0,0,1,.66-.52,6,6,0,0,0,1.46.89A4.84,4.84,0,0,0,104,25.65Z"/><path class="cls-5" d="M116.9,19.11a3,3,0,0,0-2.19.85,3.28,3.28,0,0,0-.89,2.48,3.27,3.27,0,0,0,.85,2.44,3,3,0,0,0,2.2.83,3.91,3.91,0,0,0,1.37-.21,5.86,5.86,0,0,0,1-.44,1.65,1.65,0,0,1,.51.47,1.16,1.16,0,0,1,.18.66A1.37,1.37,0,0,1,119,27.4a5.11,5.11,0,0,1-2.35.47,6.63,6.63,0,0,1-2.91-.6,4.42,4.42,0,0,1-2-1.82,5.83,5.83,0,0,1-.71-3,5.77,5.77,0,0,1,.75-3.07,4.74,4.74,0,0,1,2-1.82,6.34,6.34,0,0,1,2.76-.6,4.66,4.66,0,0,1,2.31.5,1.46,1.46,0,0,1,.87,1.25,1.22,1.22,0,0,1-.17.61,1.52,1.52,0,0,1-.42.45,5.56,5.56,0,0,0-1-.45A3.63,3.63,0,0,0,116.9,19.11Z"/><path class="cls-5" d="M132,22.4a6.19,6.19,0,0,1-.65,2.91,4.59,4.59,0,0,1-1.84,1.89,6.21,6.21,0,0,1-5.61,0A4.7,4.7,0,0,1,122,25.32a6.05,6.05,0,0,1-.66-2.92,5.92,5.92,0,0,1,.67-2.9,4.72,4.72,0,0,1,1.88-1.88,5.59,5.59,0,0,1,2.79-.67,5.49,5.49,0,0,1,2.77.67,4.64,4.64,0,0,1,1.86,1.89A6,6,0,0,1,132,22.4Zm-5.29-3.31a2.28,2.28,0,0,0-1.89.87,3.83,3.83,0,0,0-.68,2.44,3.93,3.93,0,0,0,.67,2.47,2.49,2.49,0,0,0,3.77,0,3.93,3.93,0,0,0,.68-2.46,3.92,3.92,0,0,0-.68-2.43A2.22,2.22,0,0,0,126.66,19.09Z"/><path class="cls-5" d="M136.92,22.94h-2.68V17.28l.5-.1a5.31,5.31,0,0,1,.72-.05,1.82,1.82,0,0,1,1.11.26,1.16,1.16,0,0,1,.35,1Zm-2.68.68V21.9h2.68v1.68a2,2,0,0,0,.6,1.65,2.48,2.48,0,0,0,1.66.5,4.42,4.42,0,0,0,1.18-.13,2.56,2.56,0,0,0,.72-.28V21.9h2.68v3.64a2.1,2.1,0,0,1-.16.84A1.62,1.62,0,0,1,143,27a6.6,6.6,0,0,1-1.6.62,9.15,9.15,0,0,1-2.21.25,7.13,7.13,0,0,1-2.61-.44,3.46,3.46,0,0,1-1.71-1.38A4.46,4.46,0,0,1,134.24,23.62Zm9.52-.68h-2.68V17.28l.51-.1a5.39,5.39,0,0,1,.71-.05,1.82,1.82,0,0,1,1.11.26,1.16,1.16,0,0,1,.35,1Z"/><path class="cls-5" d="M149.25,22.4h-2.68V14.56a2.64,2.64,0,0,1,.51-.13,3.29,3.29,0,0,1,.71-.07,1.81,1.81,0,0,1,1.11.27,1.18,1.18,0,0,1,.35,1Zm-2.68-.59h2.68v2.57a1.2,1.2,0,0,0,.42,1,2.1,2.1,0,0,0,1.21.3,4.2,4.2,0,0,0,1.44-.3,1.84,1.84,0,0,1,.28.41,1.2,1.2,0,0,1,.13.59,1.23,1.23,0,0,1-.59,1,3.29,3.29,0,0,1-1.87.42,4.28,4.28,0,0,1-2.71-.78,3,3,0,0,1-1-2.51Zm1.63-2.22V17.48h4.27a2.66,2.66,0,0,1,.19.43,2,2,0,0,1,.1.59,1.17,1.17,0,0,1-.26.82.91.91,0,0,1-.68.27Z"/></svg>